<?xml version="1.0" encoding="UTF-8" standalone="no"?>
<!-- Created with Inkscape (http://www.inkscape.org/) -->

<svg
   width="210mm"
   height="297mm"
   viewBox="0 0 210 297"
   version="1.1"
   id="svg1"
   inkscape:version="1.4.4 (dcaf3e7, 2026-05-05)"
   sodipodi:docname="ring.svg"
   xmlns:inkscape="http://www.inkscape.org/namespaces/inkscape"
   xmlns:sodipodi="http://sodipodi.sourceforge.net/DTD/sodipodi-0.dtd"
   xmlns="http://www.w3.org/2000/svg"
   xmlns:svg="http://www.w3.org/2000/svg">
  <sodipodi:namedview
     id="namedview1"
     pagecolor="#ffffff"
     bordercolor="#000000"
     borderopacity="0.25"
     inkscape:showpageshadow="2"
     inkscape:pageopacity="0.0"
     inkscape:pagecheckerboard="0"
     inkscape:deskcolor="#d1d1d1"
     inkscape:document-units="mm"
     inkscape:zoom="1.4859428"
     inkscape:cx="267.50694"
     inkscape:cy="232.84881"
     inkscape:window-width="1864"
     inkscape:window-height="1043"
     inkscape:window-x="0"
     inkscape:window-y="0"
     inkscape:window-maximized="1"
     inkscape:current-layer="layer1" />
  <defs
     id="defs1" />
  <g
     inkscape:label="Слой 1"
     inkscape:groupmode="layer"
     id="layer1">
    <path
       d="M 56.658106,15.590136 A 40,40 0 0 0 16.658481,55.589761 40,40 0 0 0 56.658106,95.589908 40,40 0 0 0 96.658257,55.589761 40,40 0 0 0 56.658106,15.590136 Z m 0.163814,4.985225 A 35,35 0 0 1 91.821847,55.575292 35,35 0 0 1 56.82192,90.575739 35,35 0 0 1 21.82199,55.575292 35,35 0 0 1 56.82192,20.575361 Z"
       style="fill:#ff3c0e;stroke-width:0.264583"
       id="path5" />
  </g>
</svg>
